<svg width="48" height="43" viewBox="0 0 48 43" fill="none" xmlns="http://www.w3.org/2000/svg">
<g id="Group 16">
<path id="Vector" d="M3.62887 36.756L5.74569 40.4123C6.18556 41.1821 6.81787 41.7869 7.56014 42.2268L15.1203 29.1409H0C0 29.9931 0.219921 30.8453 0.659784 31.6151L3.62887 36.756Z" fill="#0066DA"/>
<path id="Vector_2" d="M24 13.7457L16.4399 0.65979C15.6976 1.09965 15.0653 1.70446 14.6254 2.47422L0.659784 26.6667C0.228011 27.4198 0.00057488 28.2727 0 29.1409H15.1203L24 13.7457Z" fill="#00AC47"/>
<path id="Vector_3" d="M40.4399 42.2268C41.1821 41.7869 41.8144 41.1821 42.2543 40.4123L43.134 38.9003L47.3402 31.6151C47.7801 30.8453 48 29.9931 48 29.1409H32.8786L36.0962 35.4639L40.4399 42.2268Z" fill="#EA4335"/>
<path id="Vector_4" d="M24 13.7457L31.5602 0.659794C30.8179 0.219932 29.9657 0 29.0859 0H18.9141C18.0344 0 17.1821 0.247423 16.4399 0.659794L24 13.7457Z" fill="#00832D"/>
<path id="Vector_5" d="M32.8797 29.1409H15.1203L7.56015 42.2268C8.30242 42.6666 9.15465 42.8866 10.0344 42.8866H37.9656C38.8454 42.8866 39.6976 42.6391 40.4399 42.2268L32.8797 29.1409Z" fill="#2684FC"/>
<path id="Vector_6" d="M40.3574 14.5704L33.3746 2.47422C32.9347 1.70446 32.3024 1.09965 31.5601 0.65979L24 13.7457L32.8797 29.1409H47.9725C47.9725 28.2886 47.7526 27.4364 47.3127 26.6667L40.3574 14.5704Z" fill="#FFBA00"/>
</g>
</svg>
